<?xml version="1.0" encoding="utf-8"?>
<!-- Generator: Adobe Illustrator 27.3.1, SVG Export Plug-In . SVG Version: 6.00 Build 0)  -->
<svg version="1.1" id="Layer_1" xmlns="http://www.w3.org/2000/svg" xmlns:xlink="http://www.w3.org/1999/xlink" x="0px" y="0px"
	 viewBox="0 0 281.79 146.26" style="enable-background:new 0 0 281.79 146.26;" xml:space="preserve">
<style type="text/css">
	.st0{fill:#1F1E15;}
	.st1{fill:#ABB3C1;}
	.st2{fill:#44496C;}
	.st3{fill:#CF6438;}
</style>
<g>
	<path class="st0" d="M28.52,56.1h14.02c9.96,0,15.03,3.23,12.8,12.13c-1.11,4.62-4.28,7.18-9.91,8.18
		c5.4,0.89,7.07,5.29,5.73,10.68c-2.11,8.57-8.74,10.07-18.86,10.07H18.28L28.52,56.1z M33.58,93.16c2.89,0,4.06-0.72,5.73-7.57
		c1.61-6.34,0.78-7.68-1.95-7.68h-2.89l-3.84,15.25H33.58z M38.04,74.18c2.89,0,4.17-0.67,5.73-6.9c1.56-6.34,0.72-7.23-2.17-7.23
		h-2.73l-3.51,14.13H38.04z"/>
	<path class="st0" d="M52.67,88.04c1.73-7.18,5.73-8.46,12.74-8.46h3.45l0.61-2.45c0.83-3.34-0.22-4.17-3.95-4.17
		c-2.11,0-4.4,0.11-6.01,0.28l0.83-3.45c2.95-0.39,6.29-0.72,9.02-0.72c8.51,0,12.24,2.28,10.63,8.63l-4.84,19.48H64.47l0.33-1.34
		c-1.61,1.17-3.34,1.78-5.68,1.78C54.17,97.61,51.22,93.77,52.67,88.04z M65.41,93.38l2.67-10.74h-1c-1.22,0-2.28,0.95-3.39,5.45
		c-1.17,4.56-0.5,5.45,0.72,5.45C64.75,93.55,65.08,93.49,65.41,93.38z"/>
	<path class="st0" d="M81.38,82.14c2.73-10.96,8.74-13.08,17.81-13.08c2.34,0,4.9,0.28,6.9,0.72l-0.83,3.39
		c-1.45-0.17-2.67-0.28-4.12-0.28c-3.9,0-6.01,1.22-8.29,10.35c-2.28,9.07-0.78,10.35,3.12,10.35c1.45,0,2.73-0.11,4.23-0.33
		l-0.83,3.45c-2.17,0.39-4.34,0.72-6.68,0.72C83.61,97.45,78.66,93.05,81.38,82.14z"/>
	<path class="st0" d="M116.33,86.76l-1.11,1.11l-2.28,9.29H101.8L112.1,56.1h11.07l-6.46,25.76l12.74-12.52h5.34l-8.07,7.9
		l2.34,19.92H117.5L116.33,86.76z"/>
	<path class="st0" d="M142.26,95.5l-0.39,1.67H130.9l10.3-41.07h11.3l-3.67,14.52c1.73-1.17,3.62-1.84,6.12-1.84
		c6.01,0,9.07,5.45,6.57,15.58c-2.45,9.85-6.9,13.36-13.24,13.36C145.6,97.72,143.54,96.94,142.26,95.5z M149.99,83.37
		c2.11-8.46,1.45-9.91-0.56-9.91c-0.45,0-1,0.11-1.39,0.28l-4.73,19.09c0.33,0.17,0.78,0.28,1.22,0.28
		C146.43,93.11,147.82,92.1,149.99,83.37z"/>
	<path class="st0" d="M163.57,82.14c2.56-10.3,8.51-13.36,16.92-13.36c8.4,0,12.85,5.29,10.35,15.58
		c-2.56,10.35-8.46,13.36-17.03,13.36C165.29,97.72,160.95,92.72,163.57,82.14z M179.32,83.42c2.34-9.52,2.5-10.85,0.5-10.85
		c-1.95,0-2.56,1.34-4.9,10.85c-2.28,9.35-2.39,10.68-0.45,10.68C176.48,94.11,176.98,92.77,179.32,83.42z"/>
	<path class="st0" d="M197.06,69.34h10.96l-0.67,2.73c1.78-1.89,4.45-3.28,7.68-3.28c4.67,0,8.4,2.06,6.73,8.57l-4.9,19.81h-11.41
		l4.9-19.76c0.56-2,0.56-3.23-1.56-3.23c-0.56,0-1,0.11-1.56,0.22l-5.68,22.76h-11.46L197.06,69.34z"/>
	<path class="st0" d="M223.05,82.14c2.73-10.96,8.96-13.36,16.08-13.36c8.18,0,11.8,3.39,9.24,13.69c-0.28,1.17-0.67,2.5-1.06,3.51
		h-14.02c-1.56,6.84-0.17,7.62,4.73,7.62c2.34,0,4.29-0.11,6.51-0.33l-0.83,3.39c-2.84,0.5-5.45,0.78-8.51,0.78
		C226.11,97.45,220.04,94.22,223.05,82.14z M234.12,82.37h3.84c2.06-8.63,2.17-9.79,0.56-9.79
		C236.85,72.57,236.29,73.63,234.12,82.37z"/>
</g>
<g>
	<path class="st1" d="M23.4,109.59c3.22,0,6.14,1.91,6.14,5.24v5.79c0,3.5-2.86,5.17-6.17,5.17h-5v-16.2H23.4z M28.66,114.83
		c0-2.79-2.6-4.36-5.26-4.36h-4.14v14.43h4.12c2.81,0,5.29-1.31,5.29-4.29V114.83z"/>
	<path class="st1" d="M35.62,109.59h0.88v16.2h-0.88V109.59z"/>
	<path class="st1" d="M52.84,121.95c0,2.57-2.12,4.05-5.07,4.05c-2.36,0-4.6-0.95-5.74-2.81l0.71-0.48
		c1.05,1.64,2.98,2.41,5.05,2.41c2.41,0,4.17-1.12,4.17-3.17c0-2.19-1.21-3.05-4.38-3.98c-2.98-0.88-5-2.1-5-4.67
		c0-2.64,2.1-3.95,5.1-3.95c2.36,0,4.1,0.93,5.17,2.29l-0.64,0.55c-0.93-1.14-2.5-1.95-4.55-1.95c-2.36,0-4.19,1.02-4.19,3.07
		c0,2.19,1.79,3.07,4.67,3.93C51.29,118.19,52.84,119.31,52.84,121.95z"/>
	<path class="st1" d="M55.96,110.47v-0.88h12.55v0.88h-5.93v15.31H61.7v-15.31H55.96z"/>
	<path class="st1" d="M79.47,118.24l3.98,7.55h-1l-3.88-7.38h-5.03v7.38h-0.88v-16.2h5.91c2.83,0,4.48,1.64,4.48,3.95v1
		C83.04,116.67,81.66,117.88,79.47,118.24z M73.54,117.52h5.22c1.88-0.1,3.41-1.05,3.41-2.98v-1c0-1.76-1.36-3.07-3.64-3.07h-4.98
		V117.52z"/>
	<path class="st1" d="M88.33,109.59h0.88v16.2h-0.88V109.59z"/>
	<path class="st1" d="M103.22,117.36c1.79,0.55,3.07,1.76,3.07,3.69v0.93c0,2.57-1.98,3.81-4.57,3.81h-5.93v-16.2h5.31
		c2.6,0,4.57,1.24,4.57,3.88v0.67C105.67,115.74,104.62,116.93,103.22,117.36z M96.67,116.98h4.57c2.02,0,3.55-0.98,3.55-2.83v-0.67
		c0-2.21-1.5-3-3.69-3h-4.43V116.98z M105.41,121.07c0-2.14-1.74-3.22-4.07-3.22h-4.67v7.05h5.05c2.02,0,3.69-0.9,3.69-2.91V121.07z
		"/>
	<path class="st1" d="M122.42,109.59h0.88v11.29c0,3.43-2.57,5.14-5.91,5.14c-3.29,0-5.93-1.64-5.93-5.14v-11.29h0.88v11.29
		c0,2.91,2.33,4.26,5.05,4.26c2.67,0,5.03-1.55,5.03-4.26V109.59z"/>
	<path class="st1" d="M127.3,110.47v-0.88h12.55v0.88h-5.93v15.31h-0.88v-15.31H127.3z"/>
	<path class="st1" d="M144.43,109.59h0.88v16.2h-0.88V109.59z"/>
	<path class="st1" d="M163.29,114.52v6.36c0,3.22-2.41,5.14-5.93,5.14h-0.38c-3.41,0-5.72-1.91-5.72-5.14v-6.36
		c0-3.14,2.38-5.17,5.69-5.17h0.41C160.81,109.35,163.29,111.38,163.29,114.52z M162.41,114.52c0-2.62-2.1-4.29-5.05-4.29h-0.41
		c-2.81,0-4.81,1.67-4.81,4.29v6.36c0,2.76,1.95,4.26,4.83,4.26h0.38c3,0,5.05-1.5,5.05-4.26V114.52z"/>
	<path class="st1" d="M179.66,109.59h0.88v16.2h-1.1l-9.98-14.96v14.96h-0.88v-16.2h1.14l9.93,14.86V109.59z"/>
	<path class="st1" d="M196.35,121.95c0,2.57-2.12,4.05-5.07,4.05c-2.36,0-4.6-0.95-5.74-2.81l0.71-0.48
		c1.05,1.64,2.98,2.41,5.05,2.41c2.41,0,4.17-1.12,4.17-3.17c0-2.19-1.21-3.05-4.38-3.98c-2.98-0.88-5-2.1-5-4.67
		c0-2.64,2.1-3.95,5.1-3.95c2.36,0,4.1,0.93,5.17,2.29l-0.64,0.55c-0.93-1.14-2.5-1.95-4.55-1.95c-2.36,0-4.19,1.02-4.19,3.07
		c0,2.19,1.79,3.07,4.67,3.93C194.81,118.19,196.35,119.31,196.35,121.95z"/>
</g>
<polygon class="st2" points="197.31,55.83 203.9,41.02 207.33,33.32 213.76,18.32 210.49,18.32 204.06,33.32 194.24,33.32 
	184.21,55.83 "/>
<polygon class="st2" points="180.27,52.1 187.6,35.64 191.4,27.09 198.85,10.43 195.22,10.43 187.77,27.09 176.23,27.09 
	165.09,52.1 "/>
<polygon class="st2" points="161.53,48.04 168.12,33.22 171.55,25.53 178.75,10.43 175.48,10.43 168.28,25.53 158.46,25.53 
	148.44,48.04 "/>
<polygon class="st2" points="143.21,46.79 149.81,31.98 153.23,24.28 159.4,11.05 156.13,11.05 149.96,24.28 140.14,24.28 
	130.12,46.79 "/>
<polygon class="st3" points="124.31,47.36 130.25,34.02 133.33,27.1 138.88,14.63 135.94,14.63 130.39,27.1 121.89,27.1 
	112.87,47.36 "/>
<polygon class="st3" points="104.83,49.75 110.18,37.75 112.95,31.51 117.95,20.29 115.3,20.29 110.3,31.51 103.02,31.51 
	94.91,49.75 "/>
<polygon class="st3" points="85.63,55.45 90.43,44.65 92.93,39.04 97.43,28.94 95.04,28.94 90.55,39.04 84.39,39.04 77.09,55.45 "/>
<polygon class="st2" points="257.66,56 261.99,46.29 264.23,41.24 268.28,32.15 266.14,32.15 262.09,41.24 258.11,41.24 251.54,56 
	"/>
<polygon class="st2" points="243.65,58.94 248.46,48.14 250.96,42.53 255.45,32.43 253.07,32.43 248.57,42.53 242.42,42.53 
	235.11,58.94 "/>
<polygon class="st2" points="227.93,60.7 233.27,48.7 236.05,42.46 241.04,31.24 238.4,31.24 233.4,42.46 226.12,42.46 218,60.7 "/>
<polygon class="st2" points="212.2,60.15 218.14,46.82 221.22,39.9 227.44,26.44 224.5,26.44 218.28,39.9 209.78,39.9 200.76,60.15 
	"/>
</svg>
